<?xml version="1.0" encoding="UTF-8" standalone="no"?>
<!-- Created with Inkscape (http://www.inkscape.org/) -->
<svg
   xmlns:dc="http://purl.org/dc/elements/1.1/"
   xmlns:cc="http://creativecommons.org/ns#"
   xmlns:rdf="http://www.w3.org/1999/02/22-rdf-syntax-ns#"
   xmlns:svg="http://www.w3.org/2000/svg"
   xmlns="http://www.w3.org/2000/svg"
   xmlns:sodipodi="http://sodipodi.sourceforge.net/DTD/sodipodi-0.dtd"
   xmlns:inkscape="http://www.inkscape.org/namespaces/inkscape"
   id="svg2"
   sodipodi:version="0.32"
   inkscape:version="0.46dev+devel"
   width="128"
   height="128"
   version="1.0"
   sodipodi:docname="first_aid_3.svg"
   inkscape:output_extension="org.inkscape.output.svg.inkscape"
   inkscape:export-filename="C:\joanna\Gfx\drawings_vector\pitr_icons\first_aid_2.png"
   inkscape:export-xdpi="90"
   inkscape:export-ydpi="90">
  <metadata
     id="metadata7">
    <rdf:RDF>
      <cc:Work
         rdf:about="">
        <dc:format>image/svg+xml</dc:format>
        <dc:type
           rdf:resource="http://purl.org/dc/dcmitype/StillImage" />
      </cc:Work>
    </rdf:RDF>
  </metadata>
  <defs
     id="defs5" />
  <sodipodi:namedview
     inkscape:window-height="744"
     inkscape:window-width="1280"
     inkscape:pageshadow="2"
     inkscape:pageopacity="0.0"
     guidetolerance="10000"
     gridtolerance="10000"
     objecttolerance="10.0"
     borderopacity="1.0"
     bordercolor="#666666"
     pagecolor="#ffffff"
     id="base"
     showgrid="false"
     width="128px"
     showborder="true"
     borderlayer="true"
     inkscape:zoom="4.1640625"
     inkscape:cx="64"
     inkscape:cy="64"
     inkscape:window-x="-4"
     inkscape:window-y="-4"
     inkscape:current-layer="layer1"
     inkscape:snap-bbox="true"
     inkscape:snap-nodes="false">
    <inkscape:grid
       type="xygrid"
       id="grid2940"
       originx="0px"
       originy="0px"
       spacingx="0px"
       spacingy="0px"
       empspacing="16" />
  </sodipodi:namedview>
  <g
     inkscape:groupmode="layer"
     id="layer1"
     inkscape:label="wyz">
    <path
       style="opacity:1;fill:#ff0000;fill-opacity:1;fill-rule:evenodd;stroke:#000000;stroke-width:4;stroke-linecap:round;stroke-linejoin:round;marker:none;stroke-miterlimit:4;stroke-dasharray:none;stroke-dashoffset:0;stroke-opacity:1;visibility:visible;display:inline;overflow:visible;enable-background:accumulate"
       d="M 65.367057,8.0874656 C 34.915859,8.0874656 10.117057,32.917518 10.117057,63.368716 C 10.117057,93.819914 34.915859,118.61872 65.367057,118.61872 C 95.818255,118.61872 120.64831,93.819914 120.64831,63.368716 C 120.64831,32.917518 95.818255,8.0874656 65.367057,8.0874656 z M 65.367057,18.087466 C 90.407627,18.087466 110.64831,38.328146 110.64831,63.368716 C 110.64831,88.409286 90.407627,108.61872 65.367057,108.61872 C 40.326487,108.61872 20.117057,88.409286 20.117057,63.368716 C 20.117057,38.328146 40.326487,18.087466 65.367057,18.087466 z"
       id="path2933" />
    <path
       style="opacity:1;fill:#ff0000;fill-opacity:1;fill-rule:evenodd;stroke:#000000;stroke-width:4;stroke-linecap:round;stroke-linejoin:round;marker:none;marker-start:none;marker-mid:none;marker-end:none;stroke-miterlimit:4;stroke-dasharray:none;stroke-dashoffset:0;stroke-opacity:1;visibility:visible;display:inline;overflow:visible;enable-background:accumulate"
       d="M 57.329622,99.544086 C 55.505073,98.702546 55.546717,99.042106 55.546717,85.006659 L 55.546717,72.615185 L 43.046981,72.615185 C 29.226579,72.615185 29.542895,72.649087 28.802363,71.088532 C 28.466146,70.379993 28.409756,69.228192 28.409756,63.06876 C 28.409756,58.687428 28.507533,55.60423 28.659928,55.180101 C 28.797517,54.797163 29.202775,54.267718 29.560491,54.003553 C 30.188704,53.539629 30.642773,53.520995 42.8788,53.457067 L 55.546717,53.39088 L 55.546717,41.065138 C 55.546717,32.799592 55.63282,28.492392 55.808108,27.989563 C 55.951941,27.576966 56.430633,27.016542 56.872473,26.74347 C 57.647495,26.264486 57.94707,26.249628 65.47761,26.31675 L 73.279772,26.386292 L 73.899539,26.968836 C 74.240411,27.289233 74.626606,27.937638 74.757749,28.409734 C 74.900946,28.925183 74.99673,34.088982 74.997535,41.335636 L 74.998875,53.403178 L 87.451164,53.403178 L 99.90345,53.403178 L 100.71946,53.952295 C 102.0757,54.864955 102.1644,55.486249 102.08569,63.521453 C 102.01893,70.335681 101.99291,70.690466 101.51231,71.33726 C 100.55236,72.629162 100.78809,72.607839 87.426642,72.611645 L 74.998875,72.615185 L 74.998507,84.922878 C 74.998089,98.495356 75.024753,98.241446 73.480831,99.374846 C 72.835763,99.848406 72.456165,99.875176 65.555878,99.933886 C 58.892762,99.990576 58.229527,99.959146 57.329625,99.544086 L 57.329622,99.544086 z"
       id="path3004" />
  </g>
</svg>
